<svg width="22" height="37" viewBox="0 0 22 37" fill="none" xmlns="http://www.w3.org/2000/svg">
<path d="M0.950444 0.954727C0.649157 1.2554 0.410128 1.61254 0.247038 2.0057C0.0839481 2.39886 0 2.82033 0 3.24598C0 3.67162 0.0839481 4.09309 0.247038 4.48626C0.410128 4.87942 0.649157 5.23656 0.950444 5.53723L13.5604 18.1472L0.950444 30.7572C0.342766 31.3649 0.00137615 32.1891 0.00137615 33.0485C0.00137615 33.9079 0.342766 34.7321 0.950444 35.3397C1.55812 35.9474 2.38231 36.2888 3.24169 36.2888C4.10108 36.2888 4.92527 35.9474 5.53294 35.3397L20.4504 20.4222C20.7517 20.1216 20.9908 19.7644 21.1539 19.3713C21.3169 18.9781 21.4009 18.5566 21.4009 18.131C21.4009 17.7053 21.3169 17.2839 21.1539 16.8907C20.9908 16.4975 20.7517 16.1404 20.4504 15.8397L5.53294 0.922227C4.29794 -0.312773 2.21794 -0.312772 0.950444 0.954727Z" fill="white"/>
</svg>
