<svg width="22" height="38" viewBox="0 0 22 38" fill="none" xmlns="http://www.w3.org/2000/svg">
<path d="M20.7425 36.1925C21.0438 35.8918 21.2829 35.5347 21.446 35.1415C21.609 34.7484 21.693 34.3269 21.693 33.9012C21.693 33.4756 21.609 33.0541 21.446 32.661C21.2829 32.2678 21.0438 31.9107 20.7425 31.61L8.13255 19L20.7425 6.38999C21.3502 5.78231 21.6916 4.95813 21.6916 4.09874C21.6916 3.23936 21.3502 2.41516 20.7425 1.80749C20.1349 1.19981 19.3107 0.858425 18.4513 0.858425C17.5919 0.858425 16.7677 1.19981 16.16 1.80749L1.24255 16.725C0.941261 17.0257 0.702231 17.3828 0.539141 17.776C0.376053 18.1691 0.292107 18.5906 0.292107 19.0162C0.292107 19.4419 0.376053 19.8634 0.539141 20.2565C0.702231 20.6497 0.941262 21.0068 1.24255 21.3075L16.16 36.225C17.3951 37.46 19.475 37.46 20.7425 36.1925Z" fill="white"/>
</svg>
